<svg xmlns="http://www.w3.org/2000/svg" viewBox="0 0 32 32" width="32" height="32">
  <defs>
    <linearGradient id="doorGradient" x1="0%" y1="0%" x2="100%" y2="100%">
      <stop offset="0%" style="stop-color:#8B4513;stop-opacity:1" />
      <stop offset="50%" style="stop-color:#A0522D;stop-opacity:1" />
      <stop offset="100%" style="stop-color:#654321;stop-opacity:1" />
    </linearGradient>
    <linearGradient id="metalGradient" x1="0%" y1="0%" x2="100%" y2="100%">
      <stop offset="0%" style="stop-color:#696969;stop-opacity:1" />
      <stop offset="50%" style="stop-color:#808080;stop-opacity:1" />
      <stop offset="100%" style="stop-color:#2F4F4F;stop-opacity:1" />
    </linearGradient>
  </defs>
  
  <!-- Background -->
  <rect width="32" height="32" fill="#2C1810"/>
  
  <!-- Gothic arch door frame -->
  <path d="M 6 30 L 6 14 Q 6 6 16 6 Q 26 6 26 14 L 26 30 Z" 
        fill="#4A4A4A" stroke="#333" stroke-width="0.5"/>
  
  <!-- Door panels -->
  <path d="M 8 28 L 8 15 Q 8 8 16 8 Q 24 8 24 15 L 24 28 Z" 
        fill="url(#doorGradient)" stroke="#654321" stroke-width="0.3"/>
  
  <!-- Gothic arch details -->
  <path d="M 10 26 L 10 16 Q 10 10 16 10 Q 22 10 22 16 L 22 26" 
        fill="none" stroke="#8B4513" stroke-width="0.5" opacity="0.7"/>
  
  <!-- Door panels vertical division -->
  <line x1="16" y1="10" x2="16" y2="28" stroke="#654321" stroke-width="0.8"/>
  
  <!-- Door handles -->
  <circle cx="13" cy="20" r="1" fill="url(#metalGradient)"/>
  <circle cx="19" cy="20" r="1" fill="url(#metalGradient)"/>
  
  <!-- Gothic decorative elements -->
  <path d="M 16 12 L 14 15 L 18 15 Z" fill="#A0522D" opacity="0.8"/>
  <rect x="15" y="15" width="2" height="8" fill="#654321" opacity="0.6"/>
  
  <!-- Hinges -->
  <rect x="8.5" y="12" width="1" height="2" fill="url(#metalGradient)" rx="0.2"/>
  <rect x="8.5" y="24" width="1" height="2" fill="url(#metalGradient)" rx="0.2"/>
  <rect x="22.5" y="12" width="1" height="2" fill="url(#metalGradient)" rx="0.2"/>
  <rect x="22.5" y="24" width="1" height="2" fill="url(#metalGradient)" rx="0.2"/>
</svg>