<svg xmlns="http://www.w3.org/2000/svg" viewBox="0 0 64 64" width="64" height="64">
  <defs>
    <linearGradient id="doorGradient" x1="0%" y1="0%" x2="100%" y2="100%">
      <stop offset="0%" style="stop-color:#8B4513;stop-opacity:1" />
      <stop offset="50%" style="stop-color:#A0522D;stop-opacity:1" />
      <stop offset="100%" style="stop-color:#654321;stop-opacity:1" />
    </linearGradient>
    <linearGradient id="metalGradient" x1="0%" y1="0%" x2="100%" y2="100%">
      <stop offset="0%" style="stop-color:#696969;stop-opacity:1" />
      <stop offset="50%" style="stop-color:#808080;stop-opacity:1" />
      <stop offset="100%" style="stop-color:#2F4F4F;stop-opacity:1" />
    </linearGradient>
    <linearGradient id="stoneGradient" x1="0%" y1="0%" x2="100%" y2="100%">
      <stop offset="0%" style="stop-color:#696969;stop-opacity:1" />
      <stop offset="50%" style="stop-color:#4A4A4A;stop-opacity:1" />
      <stop offset="100%" style="stop-color:#333333;stop-opacity:1" />
    </linearGradient>
  </defs>
  
  <!-- Background -->
  <rect width="64" height="64" fill="#1a1a1a"/>
  
  <!-- Gothic arch door frame (stone) -->
  <path d="M 12 60 L 12 28 Q 12 12 32 12 Q 52 12 52 28 L 52 60 Z" 
        fill="url(#stoneGradient)" stroke="#666" stroke-width="1"/>
  
  <!-- Inner arch shadow -->
  <path d="M 15 57 L 15 29 Q 15 16 32 16 Q 49 16 49 29 L 49 57 Z" 
        fill="#2a2a2a" stroke="#555" stroke-width="0.5"/>
  
  <!-- Door panels -->
  <path d="M 16 56 L 16 30 Q 16 18 32 18 Q 48 18 48 30 L 48 56 Z" 
        fill="url(#doorGradient)" stroke="#654321" stroke-width="0.5"/>
  
  <!-- Gothic arch details -->
  <path d="M 20 52 L 20 32 Q 20 22 32 22 Q 44 22 44 32 L 44 52" 
        fill="none" stroke="#8B4513" stroke-width="1" opacity="0.7"/>
  
  <!-- Door panels vertical division -->
  <line x1="32" y1="20" x2="32" y2="56" stroke="#654321" stroke-width="1.5"/>
  
  <!-- Door handles -->
  <circle cx="26" cy="40" r="2" fill="url(#metalGradient)" stroke="#555" stroke-width="0.5"/>
  <circle cx="38" cy="40" r="2" fill="url(#metalGradient)" stroke="#555" stroke-width="0.5"/>
  
  <!-- Gothic decorative elements -->
  <path d="M 32 24 L 28 30 L 36 30 Z" fill="#A0522D" opacity="0.8"/>
  <rect x="30" y="30" width="4" height="16" fill="#654321" opacity="0.6" rx="0.5"/>
  
  <!-- Cross detail -->
  <rect x="31" y="32" width="2" height="12" fill="#8B4513" opacity="0.8"/>
  <rect x="28" y="37" width="8" height="2" fill="#8B4513" opacity="0.8"/>
  
  <!-- Hinges -->
  <rect x="17" y="24" width="2" height="4" fill="url(#metalGradient)" rx="0.5"/>
  <rect x="17" y="48" width="2" height="4" fill="url(#metalGradient)" rx="0.5"/>
  <rect x="45" y="24" width="2" height="4" fill="url(#metalGradient)" rx="0.5"/>
  <rect x="45" y="48" width="2" height="4" fill="url(#metalGradient)" rx="0.5"/>
  
  <!-- Stone texture details -->
  <path d="M 12 35 L 52 35" stroke="#555" stroke-width="0.3" opacity="0.5"/>
  <path d="M 12 45 L 52 45" stroke="#555" stroke-width="0.3" opacity="0.5"/>
</svg>